<svg width="512" height="512" viewBox="0 0 512 512" fill="none" xmlns="http://www.w3.org/2000/svg">
<circle cx="256" cy="256" r="256" fill="#042961"/>
<g filter="url(#filter0_d_0_1)">
<path d="M420.3 483.111L276.753 435.322C272.747 433.47 269.854 430.877 268.074 427.543C266.293 424.209 266.293 420.689 268.074 416.985C269.854 413.28 272.747 410.687 276.753 409.205C280.759 407.723 284.988 407.723 289.439 409.205L409.617 449.214V30.2292L186.619 59.1247C182.168 59.4951 178.162 58.569 174.602 56.3463C171.041 54.1235 168.815 51.1599 167.925 47.4554C167.035 43.3803 167.925 39.861 170.596 36.8973C173.711 33.5633 177.495 31.711 181.946 31.3405L423.638 0.222269C428.979 -0.518632 433.653 0.592731 437.659 3.55636C441.22 6.52001 443 10.0393 443 14.1144V470.33C443 475.146 440.552 479.036 435.656 482C430.76 484.222 425.641 484.593 420.3 483.111ZM51.0849 459.772C47.0789 461.625 42.8504 461.995 38.3994 460.884C33.9483 460.143 30.61 458.105 28.3845 454.771C26.159 451.437 25.4913 447.918 26.3815 444.213C27.7168 440.509 30.3875 437.73 34.3934 435.878C74.4529 416.244 106.278 389.756 129.868 356.415C153.459 323.074 168.148 284.362 173.934 240.277C180.165 196.193 176.605 148.404 163.251 96.9111C162.361 93.2066 163.251 89.6873 165.922 86.3532C168.593 83.0191 172.153 81.1668 176.605 80.7963C181.056 80.0554 185.284 80.6111 189.29 82.4634C193.296 84.3156 195.521 87.2793 195.967 91.3543C210.21 146.552 213.993 198.231 207.317 246.39C200.64 294.179 183.949 336.411 157.242 373.086C130.981 409.39 95.5954 438.286 51.0849 459.772ZM252.05 264.172C247.599 264.542 243.593 263.616 240.032 261.393C236.471 259.171 234.246 256.207 233.355 252.502C232.465 248.427 233.355 244.908 236.026 241.944C239.142 238.61 242.925 236.758 247.376 236.388L358.207 222.496C363.104 221.755 367.332 222.496 370.893 224.718C374.899 226.941 377.124 230.09 377.57 234.165C378.46 237.869 377.347 241.389 374.231 244.723C371.561 247.687 368 249.539 363.549 250.28L252.05 264.172ZM252.05 174.707C247.599 175.077 243.593 174.151 240.032 171.928C236.471 169.706 234.246 166.742 233.355 163.037C232.465 158.962 233.355 155.443 236.026 152.479C239.142 149.145 242.925 147.293 247.376 146.923L358.207 133.031C363.104 132.29 367.332 133.216 370.893 135.809C374.899 138.032 377.124 140.995 377.57 144.7C378.46 148.404 377.347 151.924 374.231 155.258C371.561 158.222 368 160.074 363.549 160.815L252.05 174.707Z" fill="url(#paint0_linear_0_1)"/>
</g>
<defs>
<filter id="filter0_d_0_1" x="26" y="0" width="426" height="498" filterUnits="userSpaceOnUse" color-interpolation-filters="sRGB">
<feFlood flood-opacity="0" result="BackgroundImageFix"/>
<feColorMatrix in="SourceAlpha" type="matrix" values="0 0 0 0 0 0 0 0 0 0 0 0 0 0 0 0 0 0 127 0" result="hardAlpha"/>
<feOffset dx="9" dy="14"/>
<feComposite in2="hardAlpha" operator="out"/>
<feColorMatrix type="matrix" values="0 0 0 0 0 0 0 0 0 0 0 0 0 0 0 0 0 0 0.4 0"/>
<feBlend mode="normal" in2="BackgroundImageFix" result="effect1_dropShadow_0_1"/>
<feBlend mode="normal" in="SourceGraphic" in2="effect1_dropShadow_0_1" result="shape"/>
</filter>
<linearGradient id="paint0_linear_0_1" x1="234.5" y1="0" x2="234.5" y2="484" gradientUnits="userSpaceOnUse">
<stop offset="0.73" stop-color="#D2E4FF"/>
<stop offset="1" stop-color="#1E6FE9"/>
</linearGradient>
</defs>
</svg>
